<?xml version="1.0" standalone="no"?>
<!DOCTYPE svg PUBLIC "-//W3C//DTD SVG 20010904//EN"
 "http://www.w3.org/TR/2001/REC-SVG-20010904/DTD/svg10.dtd">
<svg version="1.0" xmlns="http://www.w3.org/2000/svg"
 width="700.000000pt" height="700.000000pt" viewBox="0 0 700.000000 700.000000"
 preserveAspectRatio="xMidYMid meet">
<metadata>
Created by potrace 1.11, written by Peter Selinger 2001-2013
</metadata>
<g transform="translate(0.000000,700.000000) scale(0.100000,-0.100000)"
fill="#000000" stroke="none">
<path d="M3345 6982 c-27 -10 -167 -84 -310 -166 -143 -82 -273 -157 -290
-166 -16 -9 -149 -86 -295 -170 -285 -164 -731 -420 -925 -532 -66 -37 -127
-73 -135 -78 -8 -5 -53 -30 -100 -56 -165 -92 -260 -155 -293 -197 -38 -47
-73 -117 -82 -162 -3 -16 -5 -334 -5 -706 0 -719 -2 -698 48 -795 36 -69 101
-120 311 -238 112 -64 205 -116 207 -116 3 0 72 -40 133 -78 23 -14 19 -17
-160 -119 -101 -57 -191 -108 -199 -113 -8 -5 -58 -34 -111 -64 -131 -75 -188
-142 -218 -253 -16 -57 -16 -1360 -1 -1429 15 -66 63 -146 111 -188 33 -28
196 -124 479 -284 19 -10 78 -44 130 -74 52 -30 115 -66 140 -80 25 -14 101
-58 170 -98 69 -39 150 -86 180 -103 30 -16 143 -81 250 -142 107 -62 215
-123 240 -137 25 -14 104 -59 175 -100 72 -41 150 -86 175 -100 56 -32 240
-140 302 -178 60 -37 115 -52 190 -51 77 0 143 23 221 75 34 23 69 46 77 49 8
4 31 17 50 28 46 28 1638 946 1945 1122 44 25 99 62 122 82 51 43 98 123 113
190 16 70 16 1994 1 2052 -27 101 -108 194 -209 241 -48 23 -71 27 -147 27
-76 0 -99 -4 -145 -26 -100 -47 -183 -141 -211 -240 -9 -33 -12 -253 -13 -901
-1 -471 -3 -858 -6 -860 -3 -3 -180 -105 -395 -228 -214 -123 -415 -238 -445
-256 -43 -25 -568 -327 -590 -339 -3 -2 -5 1114 -5 2478 1 1944 4 2481 13
2479 10 -2 210 -114 272 -152 15 -9 505 -289 585 -335 22 -12 195 -111 385
-220 190 -109 372 -211 405 -226 215 -100 459 25 511 261 18 81 -8 205 -57
276 -49 71 -105 110 -429 292 -25 14 -62 36 -82 49 -21 12 -40 23 -42 23 -3 0
-43 22 -88 49 -109 63 -1178 676 -1243 712 -27 15 -120 68 -205 118 -243 144
-287 163 -378 167 -55 2 -91 -2 -127 -14z m-258 -3477 c0 -1367 -3 -2484 -6
-2483 -11 5 -176 99 -191 108 -58 37 -314 180 -321 180 -5 0 -9 5 -9 10 0 6
-5 10 -11 10 -5 0 -54 25 -107 56 -53 31 -113 66 -132 76 -19 11 -145 84 -280
161 -135 77 -277 158 -316 180 l-70 40 0 415 c1 268 5 417 11 419 6 2 219 122
475 268 516 294 546 316 590 432 31 80 31 186 0 268 -28 71 -117 166 -195 206
-27 15 -79 43 -115 64 -36 21 -85 49 -110 63 -25 14 -61 34 -80 45 -19 11 -60
33 -90 50 -30 16 -59 33 -65 37 -5 4 -30 19 -55 32 -25 14 -117 66 -205 116
l-160 90 0 406 c-1 355 1 408 15 420 8 7 184 109 390 226 206 117 382 219 390
226 8 7 20 13 25 14 11 3 35 16 370 209 132 77 243 140 246 140 3 1 6 -1117 6
-2484z"/>
</g>
</svg>
