<?xml version="1.0" encoding="utf-8"?>
<!-- Generator: Adobe Illustrator 21.1.0, SVG Export Plug-In . SVG Version: 6.00 Build 0)  -->
<svg version="1.1" id="Laag_1" xmlns="http://www.w3.org/2000/svg" xmlns:xlink="http://www.w3.org/1999/xlink" x="0px" y="0px"
	 viewBox="0 0 18 15" style="enable-background:new 0 0 18 15;" xml:space="preserve">
<style type="text/css">
	.st0{enable-background:new    ;}
	.st1{fill:#FFFFFF;}
</style>
<title>Bars - FontAwesome</title>
<desc>Created with Sketch.</desc>
<g class="st0">
	<path class="st1" d="M17.1,1.4v1.4c0,0.2-0.1,0.4-0.2,0.5s-0.3,0.2-0.5,0.2H0.7c-0.2,0-0.4-0.1-0.5-0.2C0.1,3.2,0,3.1,0,2.9V1.4
		c0-0.2,0.1-0.4,0.2-0.5c0.1-0.1,0.3-0.2,0.5-0.2h15.7c0.2,0,0.4,0.1,0.5,0.2C17.1,1.1,17.1,1.2,17.1,1.4z M17.1,7.1v1.4
		c0,0.2-0.1,0.4-0.2,0.5c-0.1,0.1-0.3,0.2-0.5,0.2H0.7c-0.2,0-0.4-0.1-0.5-0.2C0.1,8.9,0,8.8,0,8.6V7.1c0-0.2,0.1-0.4,0.2-0.5
		c0.1-0.1,0.3-0.2,0.5-0.2h15.7c0.2,0,0.4,0.1,0.5,0.2S17.1,6.9,17.1,7.1z M17.1,12.9v1.4c0,0.2-0.1,0.4-0.2,0.5S16.6,15,16.4,15
		H0.7c-0.2,0-0.4-0.1-0.5-0.2C0.1,14.6,0,14.5,0,14.3v-1.4c0-0.2,0.1-0.4,0.2-0.5c0.1-0.1,0.3-0.2,0.5-0.2h15.7
		c0.2,0,0.4,0.1,0.5,0.2C17.1,12.5,17.1,12.7,17.1,12.9z"/>
</g>
</svg>
