<?xml version="1.0" encoding="utf-8"?>
<!-- Generator: Adobe Illustrator 21.1.0, SVG Export Plug-In . SVG Version: 6.00 Build 0)  -->
<svg version="1.1" id="Laag_1" xmlns="http://www.w3.org/2000/svg" xmlns:xlink="http://www.w3.org/1999/xlink" x="0px" y="0px"
	 viewBox="0 0 30 46" style="enable-background:new 0 0 30 46;" xml:space="preserve">
<style type="text/css">
	.st0{fill:#CFCFCF;}
</style>
<title>chevron-left - FontAwesome Copy</title>
<desc>Created with Sketch.</desc>
<path class="st0" d="M1.3,37.5l14.8-14.8L1.3,7.8C1,7.5,0.8,7.1,0.8,6.6S1,5.7,1.3,5.3L6,0.7c0.4-0.4,0.8-0.5,1.3-0.5
	c0.5,0,0.9,0.2,1.3,0.5l20.7,20.7c0.4,0.4,0.5,0.8,0.5,1.3s-0.2,0.9-0.5,1.3L8.5,44.6c-0.4,0.4-0.8,0.5-1.3,0.5
	c-0.5,0-0.9-0.2-1.3-0.5L1.3,40c-0.4-0.4-0.5-0.8-0.5-1.3C0.8,38.2,1,37.8,1.3,37.5z"/>
</svg>
