<?xml version="1.0" encoding="utf-8"?>
<!-- Generator: Adobe Illustrator 21.1.0, SVG Export Plug-In . SVG Version: 6.00 Build 0)  -->
<svg version="1.1" id="Laag_1" xmlns="http://www.w3.org/2000/svg" xmlns:xlink="http://www.w3.org/1999/xlink" x="0px" y="0px"
	 viewBox="0 0 30 46" style="enable-background:new 0 0 30 46;" xml:space="preserve">
<style type="text/css">
	.st0{fill:#D0D0D0;}
</style>
<title>chevron-left - FontAwesome</title>
<desc>Created with Sketch.</desc>
<path class="st0" d="M28.7,8.5L13.9,23.4l14.8,14.8c0.4,0.4,0.5,0.8,0.5,1.3s-0.2,0.9-0.5,1.3L24,45.3c-0.4,0.4-0.8,0.5-1.3,0.5
	c-0.5,0-0.9-0.2-1.3-0.5L0.8,24.6c-0.4-0.4-0.5-0.8-0.5-1.3s0.2-0.9,0.5-1.3L21.5,1.4c0.4-0.4,0.8-0.5,1.3-0.5
	c0.5,0,0.9,0.2,1.3,0.5L28.7,6c0.4,0.4,0.5,0.8,0.5,1.3C29.2,7.8,29,8.2,28.7,8.5z"/>
</svg>
