<?xml version="1.0" encoding="utf-8"?>
<!-- Generator: Adobe Illustrator 21.1.0, SVG Export Plug-In . SVG Version: 6.00 Build 0)  -->
<svg version="1.1" id="Laag_1" xmlns="http://www.w3.org/2000/svg" xmlns:xlink="http://www.w3.org/1999/xlink" x="0px" y="0px"
	 viewBox="0 0 20 17" style="enable-background:new 0 0 20 17;" xml:space="preserve">
<style type="text/css">
	.st0{enable-background:new    ;}
	.st1{fill:#FFFFFF;}
</style>
<title>envelope - FontAwesome</title>
<desc>Created with Sketch.</desc>
<g class="st0">
	<path class="st1" d="M20,2.5c0,0.6-0.2,1.1-0.5,1.7c-0.4,0.5-0.8,1-1.4,1.4c-2.8,1.9-4.5,3.2-5.2,3.6c-0.1,0.1-0.2,0.2-0.5,0.3
		C12.2,9.7,12,9.8,11.8,10c-0.2,0.1-0.4,0.2-0.6,0.4c-0.2,0.1-0.4,0.2-0.6,0.3c-0.2,0.1-0.4,0.1-0.6,0.1h0h0c-0.2,0-0.4,0-0.6-0.1
		c-0.2-0.1-0.4-0.2-0.6-0.3S8.4,10.1,8.2,10C8,9.8,7.8,9.7,7.6,9.5S7.2,9.2,7.1,9.2C6.5,8.7,5.5,8,4.2,7.1s-2-1.4-2.3-1.6
		C1.5,5.2,1,4.8,0.6,4.3S0,3.2,0,2.7c0-0.6,0.2-1.1,0.5-1.5c0.3-0.4,0.7-0.6,1.3-0.6h16.4c0.5,0,0.9,0.2,1.3,0.5S20,2,20,2.5z
		 M20,5.8v8.9c0,0.5-0.2,0.9-0.5,1.3c-0.4,0.3-0.8,0.5-1.3,0.5H1.8c-0.5,0-0.9-0.2-1.3-0.5S0,15.1,0,14.6V5.8c0.3,0.4,0.7,0.7,1.1,1
		c2.7,1.8,4.5,3.1,5.5,3.9c0.4,0.3,0.8,0.6,1,0.7s0.6,0.4,1.1,0.5c0.4,0.2,0.8,0.3,1.2,0.3h0h0c0.4,0,0.8-0.1,1.2-0.3
		c0.4-0.2,0.8-0.4,1.1-0.5c0.3-0.2,0.6-0.4,1-0.7c1.3-0.9,3.1-2.2,5.6-3.9C19.3,6.5,19.7,6.1,20,5.8z"/>
</g>
</svg>
