<?xml version="1.0" encoding="utf-8"?>
<!-- Generator: Adobe Illustrator 21.1.0, SVG Export Plug-In . SVG Version: 6.00 Build 0)  -->
<svg version="1.1" id="Laag_1" xmlns="http://www.w3.org/2000/svg" xmlns:xlink="http://www.w3.org/1999/xlink" x="0px" y="0px"
	 viewBox="0 0 28 29" style="enable-background:new 0 0 28 29;" xml:space="preserve">
<style type="text/css">
	.st0{enable-background:new    ;}
	.st1{fill:#FFFFFF;}
</style>
<g class="st0">
	<path class="st1" d="M22.3,0.9c1.4,0,2.6,0.5,3.6,1.5s1.5,2.2,1.5,3.6v17.1c0,1.4-0.5,2.6-1.5,3.6s-2.2,1.5-3.6,1.5h-3.4V17.7h3.6
		l0.5-4.1h-4.1v-2.6c0-0.7,0.1-1.2,0.4-1.5C19.6,9,20.2,8.9,21,8.9l2.2,0V5.2C22.4,5.1,21.4,5,20,5c-1.6,0-2.9,0.5-3.9,1.4
		c-1,1-1.5,2.3-1.5,4v3.1h-3.6v4.1h3.6v10.6H5.1c-1.4,0-2.6-0.5-3.6-1.5S0,24.6,0,23.1V6c0-1.4,0.5-2.6,1.5-3.6s2.2-1.5,3.6-1.5
		H22.3z"/>
</g>
</svg>