<?xml version="1.0" encoding="utf-8"?>
<!-- Generator: Adobe Illustrator 21.1.0, SVG Export Plug-In . SVG Version: 6.00 Build 0)  -->
<svg version="1.1" id="Laag_1" xmlns="http://www.w3.org/2000/svg" xmlns:xlink="http://www.w3.org/1999/xlink" x="0px" y="0px"
	 viewBox="0 0 28 29" style="enable-background:new 0 0 28 29;" xml:space="preserve">
<style type="text/css">
	.st0{enable-background:new    ;}
	.st1{fill:#FFFFFF;}
</style>
<title>twitter-square - FontAwesome</title>
<desc>Created with Sketch.</desc>
<g class="st0">
	<path class="st1" d="M27.4,6v17.1c0,1.4-0.5,2.6-1.5,3.6s-2.2,1.5-3.6,1.5H5.1c-1.4,0-2.6-0.5-3.6-1.5S0,24.6,0,23.1V6
		c0-1.4,0.5-2.6,1.5-3.6s2.2-1.5,3.6-1.5h17.1c1.4,0,2.6,0.5,3.6,1.5S27.4,4.6,27.4,6z M22.9,9.5c-0.7,0.3-1.4,0.5-2.2,0.6
		c0.8-0.5,1.4-1.2,1.7-2.1c-0.8,0.5-1.6,0.8-2.4,0.9c-0.7-0.8-1.6-1.2-2.7-1.2c-1,0-1.9,0.4-2.7,1.1c-0.7,0.7-1.1,1.6-1.1,2.7
		c0,0.3,0,0.6,0.1,0.9c-1.5-0.1-3-0.5-4.3-1.2S6.8,9.5,5.8,8.4C5.5,9,5.3,9.6,5.3,10.3c0,1.4,0.5,2.4,1.6,3.1
		c-0.6,0-1.2-0.2-1.8-0.5v0c0,0.9,0.3,1.7,0.9,2.4s1.3,1.1,2.2,1.3c-0.3,0.1-0.6,0.1-0.9,0.1c-0.2,0-0.4,0-0.7-0.1
		c0.2,0.8,0.7,1.4,1.3,1.9c0.6,0.5,1.4,0.7,2.2,0.8c-1.4,1.1-2.9,1.6-4.7,1.6c-0.3,0-0.6,0-0.9-0.1c1.8,1.1,3.7,1.7,5.8,1.7
		c1.3,0,2.6-0.2,3.8-0.6c1.2-0.4,2.2-1,3-1.7s1.6-1.5,2.2-2.4c0.6-0.9,1-1.9,1.3-2.9c0.3-1,0.4-2,0.4-3c0-0.2,0-0.4,0-0.5
		C21.7,10.9,22.4,10.2,22.9,9.5z"/>
</g>
</svg>
