<?xml version="1.0" encoding="UTF-8"?>
<svg width="28px" height="28px" viewBox="0 0 28 28" version="1.1" xmlns="http://www.w3.org/2000/svg" xmlns:xlink="http://www.w3.org/1999/xlink">
    <!-- Generator: Sketch 43.1 (39012) - http://www.bohemiancoding.com/sketch -->
    <title>Page 1</title>
    <desc>Created with Sketch.</desc>
    <defs>
        <polygon id="path-1" points="3.51361815e-21 6.70731708e-05 3.51361815e-21 27.4552622 27.9568074 27.4552622 27.9568074 6.70731708e-05 0 6.70731708e-05"></polygon>
    </defs>
    <g id="Home" stroke="none" stroke-width="1" fill="none" fill-rule="evenodd">
        <g id="Desktop" transform="translate(-1075.000000, -5521.000000)">
            <g id="Page-1" transform="translate(1075.000000, 5521.000000)">
                <mask id="mask-2" fill="white">
                    <use xlink:href="#path-1"></use>
                </mask>
                <g id="Clip-2"></g>
                <path d="M23.1115111,21.1867378 C22.8998259,21.5274695 22.6041407,21.6327744 22.2555667,21.4561037 C20.7417519,20.6879817 19.2332519,19.9083232 17.6942889,19.1180671 C17.7642889,18.9872744 17.8158815,18.880628 17.8761593,18.7793476 C19.5671778,15.9335671 21.2589741,13.0883232 22.9515481,10.2433476 C23.0004185,10.16125 23.0579741,10.0846524 23.1115111,10.0055061 L23.1115111,21.1867378 Z M15.9337889,15.5767378 C15.1960667,14.3368232 14.4626222,13.0940915 13.715437,11.8602134 C13.5847704,11.6445061 13.5758259,11.4871524 13.7101222,11.2642012 C14.7161778,9.59260366 15.706937,7.91121341 16.7050852,6.23451829 C16.9999926,5.73911585 17.2242519,5.65943293 17.7023259,5.90478659 C19.4295111,6.79109146 21.152937,7.68490854 22.8770111,8.57711585 C22.9348259,8.60703049 22.9861593,8.65009146 23.0845481,8.71689634 C21.219437,11.8544451 19.3628815,14.9777744 17.4700296,18.1620061 C16.9373815,17.2656402 16.4359741,16.4209207 15.9337889,15.5767378 L15.9337889,15.5767378 Z M16.6560852,18.575311 C15.1097333,17.7790183 13.5620852,16.9852744 12.0224741,16.1752988 C11.8966037,16.1088963 11.7445481,15.9296768 11.7435111,15.8014329 C11.7265296,13.8851524 11.7330111,11.9687378 11.7352148,10.052189 C11.7352148,10.0291159 11.7538815,10.0060427 11.7908259,9.91992073 C13.5391407,12.8549085 15.262437,15.747372 17.0451037,18.7399085 C16.8426222,18.6547256 16.7461778,18.6217256 16.6560852,18.575311 L16.6560852,18.575311 Z M11.0474,20.8957744 C11.0462333,21.5318963 10.7322704,21.7355305 10.1848444,21.4566402 C8.64730741,20.6733598 7.11132593,19.8864573 5.59115926,19.0684329 C5.36547407,18.9468963 5.22806667,18.6493598 5.04982593,18.43325 L5.04982593,6.16717683 C5.22041852,5.8255061 5.46697407,5.78794512 5.78314074,5.95267683 C7.4656037,6.82905488 9.15247407,7.69657927 10.8298815,8.58342073 C10.9382519,8.64083537 11.041437,8.83521341 11.0418259,8.96614024 C11.0528444,12.9426402 11.0537519,16.9192744 11.0474,20.8957744 L11.0474,20.8957744 Z M22.7716222,6.70731708e-05 L5.18515926,6.70731708e-05 C2.33330741,6.70731708e-05 -2.59259261e-05,2.41470122 -2.59259261e-05,5.36592073 L-2.59259261e-05,22.0894085 C-2.59259261e-05,25.040628 2.33330741,27.4552622 5.18515926,27.4552622 L22.7716222,27.4552622 C25.6234741,27.4552622 27.9568074,25.040628 27.9568074,22.0894085 L27.9568074,5.36592073 C27.9568074,2.41470122 25.6234741,6.70731708e-05 22.7716222,6.70731708e-05 L22.7716222,6.70731708e-05 Z" id="Fill-1" fill="#FEFEFE" mask="url(#mask-2)"></path>
            </g>
        </g>
    </g>
</svg>