<?xml version="1.0" encoding="utf-8"?>
<!-- Generator: Adobe Illustrator 21.1.0, SVG Export Plug-In . SVG Version: 6.00 Build 0)  -->
<svg version="1.1" id="Laag_1" xmlns="http://www.w3.org/2000/svg" xmlns:xlink="http://www.w3.org/1999/xlink" x="0px" y="0px"
	 viewBox="0 0 477.9 480.3" style="enable-background:new 0 0 477.9 480.3;" xml:space="preserve">
<style type="text/css">
	.st0{opacity:0.1;}
	.st1{fill:#FFFFFF;}
	.st2{filter:url(#Adobe_OpacityMaskFilter);}
	.st3{mask:url(#mask-2);fill:#FFFFFF;}
</style>
<title>Page 1</title>
<desc>Created with Sketch.</desc>
<g id="Home" class="st0">
	<g id="Desktop" transform="translate(-447.000000, -5259.000000)">
		<g id="Page-1" transform="translate(447.000000, 5259.000000)">
			<path id="Fill-1" class="st1" d="M345,367.3l-71.6-103.5c-2.5-3.3-4.5-7.1-6.6-10c-1.7,2.9-4.1,6.2-6.2,9.6l-72,103.9h-34.3
				l90.2-129.7l-86.9-123.8h34.7l68.2,96c2.1,3.3,4.6,7.1,6.2,10.4c2.1-3.3,4.1-6.6,6.6-10.4l67.8-96H376l-87.3,123.8l90.6,129.7
				H345z"/>
			<path id="Fill-3" class="st1" d="M211.2,253.4c-1.7,2.9-4.1,6.2-6.2,9.6l-72,103.9H98.7l90.2-129.7L102,113.4h34.7l86.2,122.5"/>
			<g id="Group-7" transform="translate(0.000000, 0.028617)">
				<g id="Clip-6">
				</g>
				<defs>
					<filter id="Adobe_OpacityMaskFilter" filterUnits="userSpaceOnUse" x="0" y="0" width="477.9" height="480.3">
						<feColorMatrix  type="matrix" values="1 0 0 0 0  0 1 0 0 0  0 0 1 0 0  0 0 0 1 0"/>
					</filter>
				</defs>
				<mask maskUnits="userSpaceOnUse" x="0" y="0" width="477.9" height="480.3" id="mask-2">
					<g class="st2">
						<polygon id="path-1" class="st1" points="0,0 0,480.2 477.9,480.2 477.9,0 						"/>
					</g>
				</mask>
				<path id="Fill-5" class="st3" d="M239,27.7C122.4,27.7,27.6,123,27.6,240.1c0,117.1,94.8,212.4,211.4,212.4
					c116.6,0,211.4-95.3,211.4-212.4C450.4,123,355.5,27.7,239,27.7 M239,480.2C107.2,480.2,0,372.5,0,240.1S107.2,0,239,0
					c131.8,0,239,107.7,239,240.1S370.7,480.2,239,480.2"/>
			</g>
		</g>
	</g>
</g>
</svg>
